<svg width="166" height="374" viewBox="0 0 166 374" fill="none" xmlns="http://www.w3.org/2000/svg">
<g filter="url(#filter0_f)">
<path d="M28.5427 101.127C28.5427 101.127 26.3887 78.5245 34.8119 68.867C41.0278 61.7401 46.8837 57.9349 56.3782 57.7939C63.1649 57.6931 66.2389 63.7704 72.9826 63.0413C83.2567 61.9306 82.0717 47.8402 91.8864 44.652C99.2114 42.2725 104.864 41.3339 111.649 45.055C114.227 46.4692 117.515 49.7798 117.515 49.7798" stroke="#F2DA5B" stroke-width="2" stroke-linecap="round"/>
</g>
<path d="M28.5427 101.127C28.5427 101.127 26.3887 78.5245 34.8119 68.867C41.0278 61.7401 46.8837 57.9349 56.3782 57.7939C63.1649 57.6931 66.2389 63.7704 72.9826 63.0413C83.2567 61.9306 82.0717 47.8402 91.8864 44.652C99.2114 42.2725 104.864 41.3339 111.649 45.055C114.227 46.4692 117.515 49.7798 117.515 49.7798" stroke="#F2DA5B" stroke-width="2" stroke-linecap="round"/>
<path d="M71.8147 62.9463C71.8147 62.9463 76.1212 59.3037 67.6835 56.2993C59.2316 53.2898 53.5695 46.2484 48.4843 53.6398C43.3991 61.0312 35.0644 56.2785 34.0318 63.3398C32.9992 70.4012 32.562 71.6413 32.562 71.6413" stroke="#F2DA5B"/>
<g filter="url(#filter1_f)">
<path d="M104.807 266.005C104.807 266.005 121.148 277.82 122.652 289.101C123.762 297.426 122.867 303.563 117.394 309.98C113.482 314.566 107.626 313.054 104.159 317.98C98.8758 325.485 108.97 332.955 105.342 341.372C102.635 347.653 99.9469 351.974 93.487 354.318C91.0319 355.209 86.896 355.461 86.896 355.461" stroke="#F2DA5B" stroke-width="2" stroke-linecap="round"/>
</g>
<path d="M104.807 266.005C104.807 266.005 121.148 277.82 122.652 289.101C123.762 297.426 122.867 303.563 117.394 309.98C113.482 314.566 107.626 313.054 104.159 317.98C98.8758 325.485 108.97 332.955 105.342 341.372C102.635 347.653 99.9469 351.974 93.487 354.318C91.0319 355.209 86.896 355.461 86.896 355.461" stroke="#F2DA5B" stroke-width="2" stroke-linecap="round"/>
<path d="M104.907 317.256C104.907 317.256 104.812 322.264 111.763 318.397C118.726 314.523 126.743 314.875 124.794 307.149C122.844 299.423 130.901 296.65 126.796 291.821C122.691 286.992 122.12 285.973 122.12 285.973" stroke="#F2DA5B"/>
<g filter="url(#filter2_f)">
<path d="M80.8307 285.508C80.8307 285.508 58.6232 279.856 52.96 268.425C49.2816 261.001 54.5812 254.645 50.6947 247.327C47.9983 242.251 43.4417 241.581 40.6662 236.547C36.416 228.839 37.9091 214.174 37.9091 214.174" stroke="#F2DA5B" stroke-width="2" stroke-linecap="round"/>
</g>
<path d="M52.0828 252.651C52.0828 252.651 44.5461 250.405 41.2858 246.987C39.0492 244.642 39.1275 242.366 37.049 239.885C35.1388 237.605 32.7017 237.443 31.3451 234.805C29.1176 230.473 29.8175 225.966 33.3023 222.402C34.6612 221.012 37.4994 219.691 37.4994 219.691" stroke="#F2DA5B" stroke-linecap="round"/>
<path d="M80.8307 285.508C80.8307 285.508 58.6232 279.856 52.96 268.425C49.2816 261.001 54.5812 254.645 50.6947 247.327C47.9983 242.251 43.4417 241.581 40.6662 236.547C36.416 228.839 37.9091 214.174 37.9091 214.174" stroke="#F2DA5B" stroke-width="2" stroke-linecap="round"/>
<defs>
<filter id="filter0_f" x="0.169922" y="0.296021" width="133.895" height="140.497" filterUnits="userSpaceOnUse" color-interpolation-filters="sRGB">
<feFlood flood-opacity="0" result="BackgroundImageFix"/>
<feBlend mode="normal" in="SourceGraphic" in2="BackgroundImageFix" result="shape"/>
<feGaussianBlur stdDeviation="7.5" result="effect1_foregroundBlur"/>
</filter>
<filter id="filter1_f" x="56.2031" y="247.517" width="92.7773" height="124.301" filterUnits="userSpaceOnUse" color-interpolation-filters="sRGB">
<feFlood flood-opacity="0" result="BackgroundImageFix"/>
<feBlend mode="normal" in="SourceGraphic" in2="BackgroundImageFix" result="shape"/>
<feGaussianBlur stdDeviation="7.5" result="effect1_foregroundBlur"/>
</filter>
<filter id="filter2_f" x="16.3721" y="192.707" width="80.7513" height="116.29" filterUnits="userSpaceOnUse" color-interpolation-filters="sRGB">
<feFlood flood-opacity="0" result="BackgroundImageFix"/>
<feBlend mode="normal" in="SourceGraphic" in2="BackgroundImageFix" result="shape"/>
<feGaussianBlur stdDeviation="7.5" result="effect1_foregroundBlur"/>
</filter>
</defs>
</svg>
